{
  "accessors": [
    {
      "bufferView": 2,
      "componentType": 5126,
      "count": 1518,
      "max": [
        11.395099639892578,
        7.777900218963623,
        17.52429962158203
      ],
      "min": [
        -26.2273006439209,
        -7.777900218963623,
        -3.370500087738037
      ],
      "type": "VEC3"
    },
    {
      "bufferView": 2,
      "byteOffset": 18216,
      "componentType": 5126,
      "count": 1518,
      "max": [
        0.9999997615814209,
        1.0,
        1.0
      ],
      "min": [
        -0.9999998807907104,
        -1.0,
        -0.9999880790710449
      ],
      "type": "VEC3"
    },
    {
      "bufferView": 3,
      "componentType": 5126,
      "count": 1518,
      "max": [
        0.9973427653312683,
        0.9999995231628418,
        0.999976634979248,
        1.0
      ],
      "min": [
        -1.0,
        -1.0,
        -0.9999990463256836,
        -1.0
      ],
      "type": "VEC4"
    },
    {
      "bufferView": 1,
      "componentType": 5126,
      "count": 1518,
      "max": [
        0.849399983882904,
        0.9900000095367432
      ],
      "min": [
        0.009999999776482582,
        0.009999999776482582
      ],
      "type": "VEC2"
    },
    {
      "bufferView": 0,
      "componentType": 5125,
      "count": 7536,
      "type": "SCALAR"
    },
    {
      "bufferView": 2,
      "byteOffset": 36432,
      "componentType": 5126,
      "count": 71,
      "max": [
        -21.57710075378418,
        5.448200225830078,
        15.339400291442871
      ],
      "min": [
        -21.67449951171875,
        -5.448200225830078,
        4.761300086975098
      ],
      "type": "VEC3"
    },
    {
      "bufferView": 2,
      "byteOffset": 37284,
      "componentType": 5126,
      "count": 71,
      "max": [
        -0.9184700846672058,
        0.34229686856269836,
        0.37710925936698914
      ],
      "min": [
        -1.0,
        -0.36618807911872864,
        -0.22769038379192352
      ],
      "type": "VEC3"
    },
    {
      "bufferView": 3,
      "byteOffset": 24288,
      "componentType": 5126,
      "count": 71,
      "max": [
        0.36405420303344727,
        -0.9304126501083374,
        0.037121232599020004,
        1.0
      ],
      "min": [
        -0.34260085225105286,
        -1.0,
        -0.04748334363102913,
        1.0
      ],
      "type": "VEC4"
    },
    {
      "bufferView": 1,
      "byteOffset": 12144,
      "componentType": 5126,
      "count": 71,
      "max": [
        0.1370999962091446,
        0.33739998936653137
      ],
      "min": [
        0.009999999776482582,
        0.21389999985694885
      ],
      "type": "VEC2"
    },
    {
      "bufferView": 0,
      "byteOffset": 30144,
      "componentType": 5125,
      "count": 336,
      "type": "SCALAR"
    }
  ],
  "asset": {
    "extras": {
      "author": "shedmon (https://sketchfab.com/shedmon)",
      "license": "CC-BY-4.0 (http://creativecommons.org/licenses/by/4.0/)",
      "source": "https://sketchfab.com/3d-models/camera-7a937b80d13a44698ec605872d126f5f",
      "title": "Camera"
    },
    "generator": "Sketchfab-12.65.0",
    "version": "2.0"
  },
  "bufferViews": [
    {
      "buffer": 0,
      "byteLength": 31488,
      "name": "floatBufferViews",
      "target": 34963
    },
    {
      "buffer": 0,
      "byteLength": 12712,
      "byteOffset": 31488,
      "byteStride": 8,
      "name": "floatBufferViews",
      "target": 34962
    },
    {
      "buffer": 0,
      "byteLength": 38136,
      "byteOffset": 44200,
      "byteStride": 12,
      "name": "floatBufferViews",
      "target": 34962
    },
    {
      "buffer": 0,
      "byteLength": 25424,
      "byteOffset": 82336,
      "byteStride": 16,
      "name": "floatBufferViews",
      "target": 34962
    }
  ],
  "buffers": [
    {
      "byteLength": 107760,
      "uri": "scene.bin"
    }
  ],
  "extensionsUsed": [
    "KHR_materials_transmission"
  ],
  "images": [
    {
      "uri": "textures/material_baseColor.png"
    },
    {
      "uri": "textures/material_metallicRoughness.png"
    },
    {
      "uri": "textures/material_emissive.png"
    },
    {
      "uri": "textures/material_normal.png"
    }
  ],
  "materials": [
    {
      "doubleSided": true,
      "emissiveFactor": [
        1.0,
        1.0,
        1.0
      ],
      "emissiveTexture": {
        "index": 2
      },
      "name": "material",
      "normalTexture": {
        "index": 3
      },
      "occlusionTexture": {
        "index": 1
      },
      "pbrMetallicRoughness": {
        "baseColorTexture": {
          "index": 0
        },
        "metallicRoughnessTexture": {
          "index": 1
        }
      }
    },
    {
      "alphaMode": "BLEND",
      "doubleSided": true,
      "extensions": {
        "KHR_materials_transmission": {
          "transmissionFactor": 0.14706570843137612
        }
      },
      "name": "glass",
      "normalTexture": {
        "index": 3
      },
      "occlusionTexture": {
        "index": 1
      },
      "pbrMetallicRoughness": {
        "baseColorFactor": [
          1.0,
          1.0,
          1.0,
          0.8529342915686239
        ],
        "baseColorTexture": {
          "index": 0
        },
        "metallicRoughnessTexture": {
          "index": 1
        }
      }
    }
  ],
  "meshes": [
    {
      "name": "Object_0",
      "primitives": [
        {
          "attributes": {
            "NORMAL": 1,
            "POSITION": 0,
            "TANGENT": 2,
            "TEXCOORD_0": 3
          },
          "indices": 4,
          "material": 0,
          "mode": 4
        }
      ]
    },
    {
      "name": "Object_1",
      "primitives": [
        {
          "attributes": {
            "NORMAL": 6,
            "POSITION": 5,
            "TANGENT": 7,
            "TEXCOORD_0": 8
          },
          "indices": 9,
          "material": 1,
          "mode": 4
        }
      ]
    }
  ],
  "nodes": [
    {
      "children": [
        1
      ],
      "matrix": [
        1.0,
        0.0,
        0.0,
        0.0,
        0.0,
        2.220446049250313e-16,
        -1.0,
        0.0,
        0.0,
        1.0,
        2.220446049250313e-16,
        0.0,
        0.0,
        0.0,
        0.0,
        1.0
      ],
      "name": "Sketchfab_model"
    },
    {
      "children": [
        2,
        3
      ],
      "name": "9ca029915b4b4cf0ad4c8acf14f0b177.obj.cleaner.materialmerger.gles"
    },
    {
      "mesh": 0,
      "name": "Object_2"
    },
    {
      "mesh": 1,
      "name": "Object_3"
    }
  ],
  "samplers": [
    {
      "magFilter": 9729,
      "minFilter": 9987,
      "wrapS": 10497,
      "wrapT": 10497
    }
  ],
  "scene": 0,
  "scenes": [
    {
      "name": "Sketchfab_Scene",
      "nodes": [
        0
      ]
    }
  ],
  "textures": [
    {
      "sampler": 0,
      "source": 0
    },
    {
      "sampler": 0,
      "source": 1
    },
    {
      "sampler": 0,
      "source": 2
    },
    {
      "sampler": 0,
      "source": 3
    }
  ]
}
