{
  "accessors": [
    {
      "bufferView": 2,
      "componentType": 5126,
      "count": 7300,
      "max": [
        2.588360071182251,
        0.04774000123143196,
        0.0
      ],
      "min": [
        -2.2784199714660645,
        -5.887790203094482,
        -0.9410499930381775
      ],
      "type": "VEC3"
    },
    {
      "bufferView": 2,
      "byteOffset": 87600,
      "componentType": 5126,
      "count": 7300,
      "max": [
        1.0,
        1.0,
        1.0
      ],
      "min": [
        -1.0,
        -1.0,
        -1.0
      ],
      "type": "VEC3"
    },
    {
      "bufferView": 1,
      "componentType": 5126,
      "count": 7300,
      "max": [
        0.0,
        0.0
      ],
      "min": [
        0.0,
        0.0
      ],
      "type": "VEC2"
    },
    {
      "bufferView": 0,
      "componentType": 5125,
      "count": 22539,
      "type": "SCALAR"
    },
    {
      "bufferView": 2,
      "byteOffset": 175200,
      "componentType": 5126,
      "count": 3417,
      "max": [
        2.426959991455078,
        0.04774000123143196,
        0.0
      ],
      "min": [
        -2.2784199714660645,
        -5.836880207061768,
        -0.9112100005149841
      ],
      "type": "VEC3"
    },
    {
      "bufferView": 2,
      "byteOffset": 216204,
      "componentType": 5126,
      "count": 3417,
      "max": [
        1.0,
        1.0,
        1.0
      ],
      "min": [
        -1.0,
        -1.0,
        -1.0
      ],
      "type": "VEC3"
    },
    {
      "bufferView": 1,
      "byteOffset": 58400,
      "componentType": 5126,
      "count": 3417,
      "max": [
        0.0,
        0.0
      ],
      "min": [
        0.0,
        0.0
      ],
      "type": "VEC2"
    },
    {
      "bufferView": 0,
      "byteOffset": 90156,
      "componentType": 5125,
      "count": 10407,
      "type": "SCALAR"
    },
    {
      "bufferView": 2,
      "byteOffset": 257208,
      "componentType": 5126,
      "count": 160,
      "max": [
        0.35728999972343445,
        -3.0973401069641113,
        -0.4212000072002411
      ],
      "min": [
        -1.94336998462677,
        -5.415410041809082,
        -0.5221499800682068
      ],
      "type": "VEC3"
    },
    {
      "bufferView": 2,
      "byteOffset": 259128,
      "componentType": 5126,
      "count": 160,
      "max": [
        0.999998152256012,
        0.001920053968206048,
        1.0
      ],
      "min": [
        -0.999998152256012,
        -1.0,
        -1.0
      ],
      "type": "VEC3"
    },
    {
      "bufferView": 1,
      "byteOffset": 85736,
      "componentType": 5126,
      "count": 160,
      "max": [
        0.0,
        0.0
      ],
      "min": [
        0.0,
        0.0
      ],
      "type": "VEC2"
    },
    {
      "bufferView": 0,
      "byteOffset": 131784,
      "componentType": 5125,
      "count": 564,
      "type": "SCALAR"
    },
    {
      "bufferView": 2,
      "byteOffset": 261048,
      "componentType": 5126,
      "count": 524,
      "max": [
        1.9789999723434448,
        -0.14726999402046204,
        -0.12549999356269836
      ],
      "min": [
        0.10986000299453735,
        -5.45097017288208,
        -0.774869978427887
      ],
      "type": "VEC3"
    },
    {
      "bufferView": 2,
      "byteOffset": 267336,
      "componentType": 5126,
      "count": 524,
      "max": [
        1.0,
        1.0,
        1.0
      ],
      "min": [
        -1.0,
        -1.0,
        -1.0
      ],
      "type": "VEC3"
    },
    {
      "bufferView": 1,
      "byteOffset": 87016,
      "componentType": 5126,
      "count": 524,
      "max": [
        0.0,
        0.0
      ],
      "min": [
        0.0,
        0.0
      ],
      "type": "VEC2"
    },
    {
      "bufferView": 0,
      "byteOffset": 134040,
      "componentType": 5125,
      "count": 1134,
      "type": "SCALAR"
    },
    {
      "bufferView": 2,
      "byteOffset": 273624,
      "componentType": 5126,
      "count": 40,
      "max": [
        1.1470500230789185,
        -5.230879783630371,
        -0.44415000081062317
      ],
      "min": [
        0.5255200266838074,
        -5.45097017288208,
        -0.4688900113105774
      ],
      "type": "VEC3"
    },
    {
      "bufferView": 2,
      "byteOffset": 274104,
      "componentType": 5126,
      "count": 40,
      "max": [
        1.0,
        -0.0,
        1.0
      ],
      "min": [
        -1.0,
        -1.0,
        -1.0
      ],
      "type": "VEC3"
    },
    {
      "bufferView": 1,
      "byteOffset": 91208,
      "componentType": 5126,
      "count": 40,
      "max": [
        0.0,
        0.0
      ],
      "min": [
        0.0,
        0.0
      ],
      "type": "VEC2"
    },
    {
      "bufferView": 0,
      "byteOffset": 138576,
      "componentType": 5125,
      "count": 60,
      "type": "SCALAR"
    },
    {
      "bufferView": 2,
      "byteOffset": 274584,
      "componentType": 5126,
      "count": 8,
      "max": [
        -0.36667001247406006,
        -5.495100021362305,
        -0.2766300141811371
      ],
      "min": [
        -0.3887700140476227,
        -5.824629783630371,
        -0.8627099990844727
      ],
      "type": "VEC3"
    },
    {
      "bufferView": 2,
      "byteOffset": 274680,
      "componentType": 5126,
      "count": 8,
      "max": [
        0.0003100070753134787,
        -0.8717127442359924,
        0.4900171756744385
      ],
      "min": [
        -0.000210003083338961,
        -0.873817503452301,
        0.48625418543815613
      ],
      "type": "VEC3"
    },
    {
      "bufferView": 1,
      "byteOffset": 91528,
      "componentType": 5126,
      "count": 8,
      "max": [
        0.0,
        0.0
      ],
      "min": [
        0.0,
        0.0
      ],
      "type": "VEC2"
    },
    {
      "bufferView": 0,
      "byteOffset": 138816,
      "componentType": 5125,
      "count": 12,
      "type": "SCALAR"
    },
    {
      "bufferView": 2,
      "byteOffset": 274776,
      "componentType": 5126,
      "count": 4,
      "max": [
        -0.33785000443458557,
        -0.08500999957323074,
        -0.029839999973773956
      ],
      "min": [
        -0.4177199900150299,
        -5.193749904632568,
        -0.029839999973773956
      ],
      "type": "VEC3"
    },
    {
      "bufferView": 2,
      "byteOffset": 274824,
      "componentType": 5126,
      "count": 4,
      "max": [
        0.0,
        0.0,
        1.0
      ],
      "min": [
        0.0,
        0.0,
        1.0
      ],
      "type": "VEC3"
    },
    {
      "bufferView": 1,
      "byteOffset": 91592,
      "componentType": 5126,
      "count": 4,
      "max": [
        0.5085899829864502,
        1.0
      ],
      "min": [
        0.4914099872112274,
        0.0
      ],
      "type": "VEC2"
    },
    {
      "bufferView": 0,
      "byteOffset": 138864,
      "componentType": 5125,
      "count": 6,
      "type": "SCALAR"
    },
    {
      "bufferView": 2,
      "byteOffset": 274872,
      "componentType": 5126,
      "count": 966,
      "max": [
        1.001889944076538,
        0.18343999981880188,
        -0.009999999776482582
      ],
      "min": [
        -1.0018600225448608,
        -0.18343999981880188,
        -0.009999999776482582
      ],
      "type": "VEC3"
    },
    {
      "bufferView": 2,
      "byteOffset": 286464,
      "componentType": 5126,
      "count": 966,
      "max": [
        0.0,
        0.0,
        1.0
      ],
      "min": [
        0.0,
        0.0,
        0.9999999403953552
      ],
      "type": "VEC3"
    },
    {
      "bufferView": 0,
      "byteOffset": 138888,
      "componentType": 5125,
      "count": 2868,
      "type": "SCALAR"
    },
    {
      "bufferView": 2,
      "byteOffset": 298056,
      "componentType": 5126,
      "count": 427,
      "max": [
        0.04253999888896942,
        0.009089999832212925,
        -0.0010000000474974513
      ],
      "min": [
        -0.04253999888896942,
        -0.009089999832212925,
        -0.0010000000474974513
      ],
      "type": "VEC3"
    },
    {
      "bufferView": 2,
      "byteOffset": 303180,
      "componentType": 5126,
      "count": 427,
      "max": [
        0.0,
        0.0,
        1.0
      ],
      "min": [
        0.0,
        0.0,
        -1.0
      ],
      "type": "VEC3"
    },
    {
      "bufferView": 0,
      "byteOffset": 150360,
      "componentType": 5125,
      "count": 1227,
      "type": "SCALAR"
    },
    {
      "bufferView": 2,
      "byteOffset": 308304,
      "componentType": 5126,
      "count": 622,
      "max": [
        0.019020000472664833,
        0.014670000411570072,
        -0.00019999999494757503
      ],
      "min": [
        -0.01899999938905239,
        -0.014670000411570072,
        -0.00019999999494757503
      ],
      "type": "VEC3"
    },
    {
      "bufferView": 2,
      "byteOffset": 315768,
      "componentType": 5126,
      "count": 622,
      "max": [
        -0.0,
        0.0,
        1.0
      ],
      "min": [
        -0.0,
        0.0,
        1.0
      ],
      "type": "VEC3"
    },
    {
      "bufferView": 0,
      "byteOffset": 155268,
      "componentType": 5125,
      "count": 1845,
      "type": "SCALAR"
    },
    {
      "bufferView": 2,
      "byteOffset": 323232,
      "componentType": 5126,
      "count": 288,
      "max": [
        2.52620005607605,
        0.1555899977684021,
        -0.09877999871969223
      ],
      "min": [
        -2.0324199199676514,
        -0.5008699893951416,
        -0.8233799934387207
      ],
      "type": "VEC3"
    },
    {
      "bufferView": 2,
      "byteOffset": 326688,
      "componentType": 5126,
      "count": 288,
      "max": [
        1.0,
        1.0,
        1.0
      ],
      "min": [
        -1.0,
        -1.0,
        -1.0
      ],
      "type": "VEC3"
    },
    {
      "bufferView": 0,
      "byteOffset": 162648,
      "componentType": 5125,
      "count": 432,
      "type": "SCALAR"
    },
    {
      "bufferView": 2,
      "byteOffset": 330144,
      "componentType": 5126,
      "count": 15339,
      "max": [
        2.120300054550171,
        1.3389099836349487,
        0.030969999730587006
      ],
      "min": [
        -2.1236300468444824,
        -1.0769100189208984,
        -0.9434099793434143
      ],
      "type": "VEC3"
    },
    {
      "bufferView": 2,
      "byteOffset": 514212,
      "componentType": 5126,
      "count": 15339,
      "max": [
        1.0,
        1.0,
        1.0
      ],
      "min": [
        -1.0,
        -1.0,
        -1.0
      ],
      "type": "VEC3"
    },
    {
      "bufferView": 0,
      "byteOffset": 164376,
      "componentType": 5125,
      "count": 87168,
      "type": "SCALAR"
    },
    {
      "bufferView": 2,
      "byteOffset": 698280,
      "componentType": 5126,
      "count": 25812,
      "max": [
        2.1205599308013916,
        1.3968100547790527,
        0.23642000555992126
      ],
      "min": [
        -2.1236300468444824,
        -1.3185800313949585,
        -1.328160047531128
      ],
      "type": "VEC3"
    },
    {
      "bufferView": 2,
      "byteOffset": 1008024,
      "componentType": 5126,
      "count": 25812,
      "max": [
        1.0,
        1.0,
        1.0
      ],
      "min": [
        -1.0,
        -1.0,
        -1.0
      ],
      "type": "VEC3"
    },
    {
      "bufferView": 0,
      "byteOffset": 513048,
      "componentType": 5125,
      "count": 148224,
      "type": "SCALAR"
    },
    {
      "bufferView": 2,
      "byteOffset": 1317768,
      "componentType": 5126,
      "count": 1145,
      "max": [
        0.7683899998664856,
        1.2249900102615356,
        -0.4708299934864044
      ],
      "min": [
        -0.7714599967002869,
        1.1362199783325195,
        -0.7351300120353699
      ],
      "type": "VEC3"
    },
    {
      "bufferView": 2,
      "byteOffset": 1331508,
      "componentType": 5126,
      "count": 1145,
      "max": [
        0.46291109919548035,
        0.9924794435501099,
        0.18155209720134735
      ],
      "min": [
        -0.46291109919548035,
        0.6324849128723145,
        -0.7741482853889465
      ],
      "type": "VEC3"
    },
    {
      "bufferView": 0,
      "byteOffset": 1105944,
      "componentType": 5125,
      "count": 6528,
      "type": "SCALAR"
    }
  ],
  "asset": {
    "extras": {
      "author": "HAWk_463 (https://sketchfab.com/mbon913)",
      "license": "CC-BY-NC-ND-4.0 (http://creativecommons.org/licenses/by-nc-nd/4.0/)",
      "source": "https://sketchfab.com/3d-models/playstation-4-dacf322738c34c3cba14843218f31ec7",
      "title": "PlayStation 4"
    },
    "generator": "Sketchfab-12.66.0",
    "version": "2.0"
  },
  "bufferViews": [
    {
      "buffer": 0,
      "byteLength": 1132056,
      "name": "floatBufferViews",
      "target": 34963
    },
    {
      "buffer": 0,
      "byteLength": 91624,
      "byteOffset": 1132056,
      "byteStride": 8,
      "name": "floatBufferViews",
      "target": 34962
    },
    {
      "buffer": 0,
      "byteLength": 1345248,
      "byteOffset": 1223680,
      "byteStride": 12,
      "name": "floatBufferViews",
      "target": 34962
    }
  ],
  "buffers": [
    {
      "byteLength": 2568928,
      "uri": "scene.bin"
    }
  ],
  "materials": [
    {
      "doubleSided": true,
      "name": "PlayStation_Main",
      "pbrMetallicRoughness": {
        "baseColorFactor": [
          0.051766289830066425,
          0.051766289830066425,
          0.051766289830066425,
          1.0
        ],
        "metallicFactor": 0.0,
        "roughnessFactor": 0.41000000000000003
      }
    },
    {
      "doubleSided": true,
      "name": "PlayStation_Controller_Darker",
      "pbrMetallicRoughness": {
        "baseColorFactor": [
          0.009615739678686761,
          0.009615739678686761,
          0.009615739678686761,
          1.0
        ],
        "metallicFactor": 0.0,
        "roughnessFactor": 0.25
      }
    },
    {
      "doubleSided": true,
      "emissiveFactor": [
        0.10176127776503562,
        0.30244648456573475,
        1.0
      ],
      "name": "Controller_light",
      "pbrMetallicRoughness": {
        "baseColorFactor": [
          0.017991601983331707,
          0.03044597747535764,
          0.6513748964498259,
          1.0
        ],
        "metallicFactor": 0.0,
        "roughnessFactor": 0.6
      }
    },
    {
      "doubleSided": true,
      "name": "PlayStation_Glossy",
      "pbrMetallicRoughness": {
        "baseColorFactor": [
          0.009615739678686761,
          0.009615739678686761,
          0.009615739678686761,
          1.0
        ],
        "metallicFactor": 0.0,
        "roughnessFactor": 0.12
      }
    },
    {
      "doubleSided": true,
      "name": "Disc_Tray",
      "pbrMetallicRoughness": {
        "baseColorFactor": [
          0.0,
          0.0,
          0.0,
          1.0
        ],
        "metallicFactor": 0.0
      }
    },
    {
      "doubleSided": true,
      "name": "Metal",
      "pbrMetallicRoughness": {
        "roughnessFactor": 0.10999999999999999
      }
    },
    {
      "doubleSided": true,
      "name": "Blue_Plastic",
      "pbrMetallicRoughness": {
        "baseColorFactor": [
          0.012657039558127383,
          0.03740453711707912,
          0.7926760664667006,
          1.0
        ],
        "metallicFactor": 0.0,
        "roughnessFactor": 0.6
      }
    },
    {
      "doubleSided": true,
      "emissiveFactor": [
        1.0,
        1.0,
        1.0
      ],
      "name": "White_light",
      "pbrMetallicRoughness": {
        "metallicFactor": 0.0,
        "roughnessFactor": 0.74
      }
    },
    {
      "doubleSided": true,
      "emissiveFactor": [
        0.10176127776503562,
        0.30244648456573475,
        1.0
      ],
      "name": "Blue_Light",
      "pbrMetallicRoughness": {
        "baseColorFactor": [
          0.003939815656614083,
          0.022130972776790922,
          0.8741016688625401,
          1.0
        ],
        "metallicFactor": 0.0,
        "roughnessFactor": 0.16000000000000003
      }
    },
    {
      "doubleSided": true,
      "name": "Curve.002_0",
      "pbrMetallicRoughness": {
        "baseColorFactor": [
          0.8103699510436352,
          0.8103699510436352,
          0.8103699510436352,
          1.0
        ],
        "metallicFactor": 0.0,
        "roughnessFactor": 0.09999999999999998
      }
    },
    {
      "doubleSided": true,
      "name": "Curve.001_0",
      "pbrMetallicRoughness": {
        "baseColorFactor": [
          0.005097615027984815,
          0.005097615027984815,
          0.005097615027984815,
          1.0
        ],
        "metallicFactor": 0.05,
        "roughnessFactor": 0.89
      }
    },
    {
      "doubleSided": true,
      "name": "PlayStation_Logo",
      "pbrMetallicRoughness": {
        "roughnessFactor": 0.6
      }
    }
  ],
  "meshes": [
    {
      "name": "Plane_0",
      "primitives": [
        {
          "attributes": {
            "NORMAL": 1,
            "POSITION": 0,
            "TEXCOORD_0": 2
          },
          "indices": 3,
          "material": 0,
          "mode": 4
        }
      ]
    },
    {
      "name": "Plane_1",
      "primitives": [
        {
          "attributes": {
            "NORMAL": 5,
            "POSITION": 4,
            "TEXCOORD_0": 6
          },
          "indices": 7,
          "material": 3,
          "mode": 4
        }
      ]
    },
    {
      "name": "Plane_2",
      "primitives": [
        {
          "attributes": {
            "NORMAL": 9,
            "POSITION": 8,
            "TEXCOORD_0": 10
          },
          "indices": 11,
          "material": 4,
          "mode": 4
        }
      ]
    },
    {
      "name": "Plane_3",
      "primitives": [
        {
          "attributes": {
            "NORMAL": 13,
            "POSITION": 12,
            "TEXCOORD_0": 14
          },
          "indices": 15,
          "material": 5,
          "mode": 4
        }
      ]
    },
    {
      "name": "Plane_4",
      "primitives": [
        {
          "attributes": {
            "NORMAL": 17,
            "POSITION": 16,
            "TEXCOORD_0": 18
          },
          "indices": 19,
          "material": 6,
          "mode": 4
        }
      ]
    },
    {
      "name": "Plane_5",
      "primitives": [
        {
          "attributes": {
            "NORMAL": 21,
            "POSITION": 20,
            "TEXCOORD_0": 22
          },
          "indices": 23,
          "material": 7,
          "mode": 4
        }
      ]
    },
    {
      "name": "Plane_6",
      "primitives": [
        {
          "attributes": {
            "NORMAL": 25,
            "POSITION": 24,
            "TEXCOORD_0": 26
          },
          "indices": 27,
          "material": 8,
          "mode": 4
        }
      ]
    },
    {
      "name": "Curve.002_0",
      "primitives": [
        {
          "attributes": {
            "NORMAL": 29,
            "POSITION": 28
          },
          "indices": 30,
          "material": 9,
          "mode": 4
        }
      ]
    },
    {
      "name": "Curve.001_0",
      "primitives": [
        {
          "attributes": {
            "NORMAL": 32,
            "POSITION": 31
          },
          "indices": 33,
          "material": 10,
          "mode": 4
        }
      ]
    },
    {
      "name": "Curve.000_0",
      "primitives": [
        {
          "attributes": {
            "NORMAL": 35,
            "POSITION": 34
          },
          "indices": 36,
          "material": 11,
          "mode": 4
        }
      ]
    },
    {
      "name": "Plane.001_0",
      "primitives": [
        {
          "attributes": {
            "NORMAL": 38,
            "POSITION": 37
          },
          "indices": 39,
          "material": 0,
          "mode": 4
        }
      ]
    },
    {
      "name": "Plane.002_0",
      "primitives": [
        {
          "attributes": {
            "NORMAL": 41,
            "POSITION": 40
          },
          "indices": 42,
          "material": 0,
          "mode": 4
        }
      ]
    },
    {
      "name": "Plane.002_1",
      "primitives": [
        {
          "attributes": {
            "NORMAL": 44,
            "POSITION": 43
          },
          "indices": 45,
          "material": 1,
          "mode": 4
        }
      ]
    },
    {
      "name": "Plane.002_2",
      "primitives": [
        {
          "attributes": {
            "NORMAL": 47,
            "POSITION": 46
          },
          "indices": 48,
          "material": 2,
          "mode": 4
        }
      ]
    }
  ],
  "nodes": [
    {
      "children": [
        1
      ],
      "matrix": [
        0.3701227605342865,
        0.0,
        0.0,
        0.0,
        0.0,
        8.218376213659762e-17,
        -0.3701227605342865,
        0.0,
        0.0,
        0.3701227605342865,
        8.218376213659762e-17,
        0.0,
        0.0,
        0.0,
        0.0,
        1.0
      ],
      "name": "Sketchfab_model"
    },
    {
      "children": [
        2,
        18
      ],
      "name": "Root"
    },
    {
      "children": [
        3,
        4,
        5,
        6,
        7,
        8,
        9,
        10,
        12,
        14,
        16
      ],
      "matrix": [
        1.0,
        0.0,
        0.0,
        0.0,
        0.0,
        1.0,
        0.0,
        0.0,
        0.0,
        0.0,
        1.0,
        0.0,
        0.0,
        0.0,
        0.9406500000000001,
        1.0
      ],
      "name": "Plane"
    },
    {
      "mesh": 0,
      "name": "Plane_0"
    },
    {
      "mesh": 1,
      "name": "Plane_1"
    },
    {
      "mesh": 2,
      "name": "Plane_2"
    },
    {
      "mesh": 3,
      "name": "Plane_3"
    },
    {
      "mesh": 4,
      "name": "Plane_4"
    },
    {
      "mesh": 5,
      "name": "Plane_5"
    },
    {
      "mesh": 6,
      "name": "Plane_6"
    },
    {
      "children": [
        11
      ],
      "matrix": [
        0.20199000000000003,
        0.0,
        -0.0,
        0.0,
        -0.0,
        0.09830000000000003,
        0.17646000000000003,
        0.0,
        0.0,
        -0.17646000000000003,
        0.09830000000000003,
        0.0,
        -1.84787,
        -5.466340000000001,
        -0.19177000000000002,
        1.0
      ],
      "name": "Curve.002"
    },
    {
      "mesh": 7,
      "name": "Curve.002_0"
    },
    {
      "children": [
        13
      ],
      "matrix": [
        6.37193,
        0.0,
        -0.0,
        0.0,
        0.0,
        3.04138,
        5.599240000000001,
        0.0,
        0.0,
        -5.599240000000001,
        3.04138,
        0.0,
        2.05299,
        -5.46844,
        -0.19220000000000004,
        1.0
      ],
      "name": "Curve.001"
    },
    {
      "mesh": 8,
      "name": "Curve.001_0"
    },
    {
      "children": [
        15
      ],
      "matrix": [
        -0.0,
        11.41934,
        0.0,
        0.0,
        -11.41934,
        -0.0,
        0.0,
        0.0,
        0.0,
        0.0,
        11.41934,
        0.0,
        -0.7656400000000002,
        -0.37025,
        0.0,
        1.0
      ],
      "name": "Curve.000"
    },
    {
      "mesh": 9,
      "name": "Curve.000_0"
    },
    {
      "children": [
        17
      ],
      "matrix": [
        1.0,
        0.0,
        0.0,
        0.0,
        0.0,
        1.0,
        0.0,
        0.0,
        0.0,
        0.0,
        1.0,
        0.0,
        0.0,
        -0.18549000000000004,
        0.0,
        1.0
      ],
      "name": "Plane.001"
    },
    {
      "mesh": 10,
      "name": "Plane.001_0"
    },
    {
      "children": [
        19,
        20,
        21
      ],
      "matrix": [
        0.4892,
        0.35774,
        -0.0,
        0.0,
        -0.20966,
        0.2867,
        0.49106000000000005,
        0.0,
        0.28987000000000007,
        -0.3963800000000001,
        0.35518000000000005,
        0.0,
        4.5052900000000005,
        -4.59874,
        1.0145,
        1.0
      ],
      "name": "Plane.002"
    },
    {
      "mesh": 11,
      "name": "Plane.002_0"
    },
    {
      "mesh": 12,
      "name": "Plane.002_1"
    },
    {
      "mesh": 13,
      "name": "Plane.002_2"
    }
  ],
  "scene": 0,
  "scenes": [
    {
      "name": "Sketchfab_Scene",
      "nodes": [
        0
      ]
    }
  ]
}
