{
  "accessors": [
    {
      "bufferView": 2,
      "componentType": 5126,
      "count": 178,
      "max": [
        -0.13991299271583557,
        0.0905739963054657,
        0.466856986284256
      ],
      "min": [
        -0.6175230145454407,
        -0.0010000000474974513,
        -0.46426698565483093
      ],
      "type": "VEC3"
    },
    {
      "bufferView": 2,
      "byteOffset": 2136,
      "componentType": 5126,
      "count": 178,
      "max": [
        0.9451882243156433,
        0.7136786580085754,
        0.9451834559440613
      ],
      "min": [
        -0.9451882243156433,
        -1.0,
        -0.9051266312599182
      ],
      "type": "VEC3"
    },
    {
      "bufferView": 3,
      "componentType": 5126,
      "count": 178,
      "max": [
        1.0,
        0.952896773815155,
        0.6974703669548035,
        1.0
      ],
      "min": [
        -0.9995735287666321,
        -0.9528968334197998,
        -0.6969163417816162,
        1.0
      ],
      "type": "VEC4"
    },
    {
      "bufferView": 1,
      "componentType": 5126,
      "count": 178,
      "max": [
        0.9926720261573792,
        1.0
      ],
      "min": [
        0.009078999981284142,
        0.0
      ],
      "type": "VEC2"
    },
    {
      "bufferView": 0,
      "componentType": 5125,
      "count": 600,
      "type": "SCALAR"
    }
  ],
  "asset": {
    "extras": {
      "author": "SketchFabFan (https://sketchfab.com/Sketch_Fab_Fan)",
      "license": "CC-BY-4.0 (http://creativecommons.org/licenses/by/4.0/)",
      "source": "https://sketchfab.com/3d-models/nokia-e72-lowpoly-for-thesims4-cellphone-1fa59347f97a43f992d4f1c17819f6b0",
      "title": "Nokia E72 - LowPoly for TheSims4 Cellphone"
    },
    "generator": "Sketchfab-15.50.0",
    "version": "2.0"
  },
  "bufferViews": [
    {
      "buffer": 0,
      "byteLength": 2400,
      "name": "floatBufferViews",
      "target": 34963
    },
    {
      "buffer": 0,
      "byteLength": 1424,
      "byteOffset": 2400,
      "byteStride": 8,
      "name": "floatBufferViews",
      "target": 34962
    },
    {
      "buffer": 0,
      "byteLength": 4272,
      "byteOffset": 3824,
      "byteStride": 12,
      "name": "floatBufferViews",
      "target": 34962
    },
    {
      "buffer": 0,
      "byteLength": 2848,
      "byteOffset": 8096,
      "byteStride": 16,
      "name": "floatBufferViews",
      "target": 34962
    }
  ],
  "buffers": [
    {
      "byteLength": 10944,
      "uri": "scene.bin"
    }
  ],
  "extensionsRequired": [
    "KHR_materials_pbrSpecularGlossiness"
  ],
  "extensionsUsed": [
    "KHR_materials_pbrSpecularGlossiness"
  ],
  "images": [
    {
      "uri": "textures/Nokia_E72_diffuse.png"
    },
    {
      "uri": "textures/Nokia_E72_specularGlossiness.png"
    },
    {
      "uri": "textures/Nokia_E72_normal.png"
    },
    {
      "uri": "textures/Nokia_E72_occlusion.png"
    }
  ],
  "materials": [
    {
      "doubleSided": true,
      "extensions": {
        "KHR_materials_pbrSpecularGlossiness": {
          "diffuseFactor": [
            1.0,
            1.0,
            1.0,
            1.0
          ],
          "diffuseTexture": {
            "index": 0
          },
          "glossinessFactor": 1.0,
          "specularFactor": [
            1.0,
            1.0,
            1.0
          ],
          "specularGlossinessTexture": {
            "index": 1
          }
        }
      },
      "name": "Nokia_E72",
      "normalTexture": {
        "index": 2
      },
      "occlusionTexture": {
        "index": 3,
        "strength": 0.5
      }
    }
  ],
  "meshes": [
    {
      "name": "Object_0",
      "primitives": [
        {
          "attributes": {
            "NORMAL": 1,
            "POSITION": 0,
            "TANGENT": 2,
            "TEXCOORD_0": 3
          },
          "indices": 4,
          "material": 0,
          "mode": 4
        }
      ]
    }
  ],
  "nodes": [
    {
      "children": [
        1
      ],
      "matrix": [
        1.0,
        0.0,
        0.0,
        0.0,
        0.0,
        2.220446049250313e-16,
        -1.0,
        0.0,
        0.0,
        1.0,
        2.220446049250313e-16,
        0.0,
        0.0,
        0.0,
        0.0,
        1.0
      ],
      "name": "Sketchfab_model"
    },
    {
      "children": [
        2
      ],
      "name": "Nokia_E72.obj.cleaner.materialmerger.gles"
    },
    {
      "mesh": 0,
      "name": "Object_2"
    }
  ],
  "samplers": [
    {
      "magFilter": 9729,
      "minFilter": 9987,
      "wrapS": 10497,
      "wrapT": 10497
    }
  ],
  "scene": 0,
  "scenes": [
    {
      "name": "Sketchfab_Scene",
      "nodes": [
        0
      ]
    }
  ],
  "textures": [
    {
      "sampler": 0,
      "source": 0
    },
    {
      "sampler": 0,
      "source": 1
    },
    {
      "sampler": 0,
      "source": 2
    },
    {
      "sampler": 0,
      "source": 3
    }
  ]
}
